<?xml version="1.0" encoding="utf-8"?>
<!-- Generator: Adobe Illustrator 15.1.0, SVG Export Plug-In  -->
<!DOCTYPE svg PUBLIC "-//W3C//DTD SVG 1.1//EN" "http://www.w3.org/Graphics/SVG/1.1/DTD/svg11.dtd" [
	<!ENTITY ns_flows "http://ns.adobe.com/Flows/1.0/">
]>
<svg version="1.1"
	 xmlns="http://www.w3.org/2000/svg" xmlns:xlink="http://www.w3.org/1999/xlink" xmlns:a="http://ns.adobe.com/AdobeSVGViewerExtensions/3.0/"
	 x="0px" y="0px" width="64px" height="64px" viewBox="0 0 64 64" style="enable-background:new 0 0 64 64;" xml:space="preserve">
<style type="text/css">
<![CDATA[
	.st0{display:none;opacity:0.5;fill:#E42320;}
	.st1{fill:#666666;}
]]>
</style>
<defs>
</defs>
<path class="st1" d="M57.24,30.03L54,29.22V27c0-0.19-0.06-0.35-0.15-0.5C53.94,26.35,54,26.19,54,26c0-12.13-9.87-22-22-22
	s-22,9.87-22,22c0,0.19,0.06,0.35,0.15,0.5C10.06,26.65,10,26.81,10,27v2.22l-3.24,0.81C6.31,30.14,6,30.54,6,31v7
	c0,0.46,0.31,0.86,0.76,0.97L10,39.78V40c0,2.21,1.79,4,4,4s4-1.79,4-4V30c0-2.21-1.79-4-4-4h-2c0-11.03,8.97-20,20-20
	s20,8.97,20,20h-2c-2.21,0-4,1.79-4,4v10c0,2.21,1.79,4,4,4c0.69,0,1.33-0.19,1.89-0.5c-0.77,5.99-6.09,10.9-13.31,12.17
	C37.94,54.68,36.6,54,35,54c-2.24,0-4,1.32-4,3s1.76,3,4,3c1.95,0,3.52-0.99,3.91-2.35C47.7,56.11,54,49.64,54,42v-2v-0.22
	l3.24-0.81C57.69,38.86,58,38.46,58,38v-7C58,30.54,57.69,30.14,57.24,30.03z M8,37.22v-5.44l2-0.5v6.44L8,37.22z M14,28
	c1.1,0,2,0.9,2,2v10c0,1.1-0.9,2-2,2s-2-0.9-2-2V28H14z M35,58c-1.22,0-2-0.59-2-1s0.78-1,2-1c1.14,0,1.89,0.52,1.98,0.92
	c0,0.01,0,0.01,0,0.02c0,0.02,0.01,0.03,0.01,0.04c0,0.01,0,0.01,0,0.02C37,57.41,36.22,58,35,58z M50,42c-1.1,0-2-0.9-2-2V30
	c0-1.1,0.9-2,2-2h2v12C52,41.1,51.1,42,50,42z M56,37.22l-2,0.5v-6.44l2,0.5V37.22z"/>
<rect id="headset_1_" class="st0" width="64" height="64"/>
</svg>
